<mxfile host="Electron" agent="Mozilla/5.0 (Windows NT 10.0; Win64; x64) AppleWebKit/537.36 (KHTML, like Gecko) draw.io/27.0.5 Chrome/134.0.6998.205 Electron/35.3.0 Safari/537.36" version="27.0.5">
  <diagram name="Page-1" id="o0-YCIVSncjhVHEUegtF">
    <mxGraphModel dx="1959" dy="989" grid="1" gridSize="10" guides="1" tooltips="1" connect="1" arrows="1" fold="1" page="1" pageScale="1" pageWidth="850" pageHeight="1100" math="0" shadow="0">
      <root>
        <mxCell id="0" />
        <mxCell id="1" parent="0" />
        <mxCell id="65cJs1QdrKwOqryNa3kE-8" value="" style="edgeStyle=orthogonalEdgeStyle;rounded=0;orthogonalLoop=1;jettySize=auto;html=1;curved=0;" edge="1" parent="1" source="65cJs1QdrKwOqryNa3kE-3" target="65cJs1QdrKwOqryNa3kE-7">
          <mxGeometry relative="1" as="geometry">
            <Array as="points">
              <mxPoint x="75" y="260" />
              <mxPoint x="75" y="260" />
            </Array>
          </mxGeometry>
        </mxCell>
        <mxCell id="65cJs1QdrKwOqryNa3kE-3" value="" style="html=1;points=[[0,0,0,0,5],[0,1,0,0,-5],[1,0,0,0,5],[1,1,0,0,-5]];perimeter=orthogonalPerimeter;outlineConnect=0;targetShapes=umlLifeline;portConstraint=eastwest;newEdgeStyle={&quot;curved&quot;:0,&quot;rounded&quot;:0};" vertex="1" parent="1">
          <mxGeometry x="70" y="190" width="10" height="180" as="geometry" />
        </mxCell>
        <mxCell id="65cJs1QdrKwOqryNa3kE-5" value="ورود به سامانه" style="html=1;verticalAlign=bottom;endArrow=block;curved=0;rounded=0;" edge="1" parent="1">
          <mxGeometry relative="1" as="geometry">
            <mxPoint x="80" y="230" as="sourcePoint" />
            <mxPoint x="480" y="230" as="targetPoint" />
            <Array as="points">
              <mxPoint x="270" y="230" />
            </Array>
          </mxGeometry>
        </mxCell>
        <mxCell id="65cJs1QdrKwOqryNa3kE-6" value="نمایش داشبورد کارمند" style="html=1;verticalAlign=bottom;endArrow=open;dashed=1;endSize=8;curved=0;rounded=0;" edge="1" parent="1">
          <mxGeometry relative="1" as="geometry">
            <mxPoint x="80" y="260" as="targetPoint" />
            <mxPoint x="480" y="260" as="sourcePoint" />
            <Array as="points">
              <mxPoint x="280" y="260" />
            </Array>
          </mxGeometry>
        </mxCell>
        <mxCell id="65cJs1QdrKwOqryNa3kE-7" value="کارمند" style="whiteSpace=wrap;html=1;" vertex="1" parent="1">
          <mxGeometry x="15" y="100" width="120" height="60" as="geometry" />
        </mxCell>
        <mxCell id="65cJs1QdrKwOqryNa3kE-9" value="" style="edgeStyle=orthogonalEdgeStyle;rounded=0;orthogonalLoop=1;jettySize=auto;html=1;curved=0;" edge="1" parent="1" source="65cJs1QdrKwOqryNa3kE-10" target="65cJs1QdrKwOqryNa3kE-11">
          <mxGeometry relative="1" as="geometry">
            <Array as="points">
              <mxPoint x="485" y="260" />
              <mxPoint x="485" y="260" />
            </Array>
          </mxGeometry>
        </mxCell>
        <mxCell id="65cJs1QdrKwOqryNa3kE-10" value="" style="html=1;points=[[0,0,0,0,5],[0,1,0,0,-5],[1,0,0,0,5],[1,1,0,0,-5]];perimeter=orthogonalPerimeter;outlineConnect=0;targetShapes=umlLifeline;portConstraint=eastwest;newEdgeStyle={&quot;curved&quot;:0,&quot;rounded&quot;:0};" vertex="1" parent="1">
          <mxGeometry x="480" y="210" width="10" height="130" as="geometry" />
        </mxCell>
        <mxCell id="65cJs1QdrKwOqryNa3kE-11" value="سامانه آموزشگاه" style="whiteSpace=wrap;html=1;" vertex="1" parent="1">
          <mxGeometry x="425" y="100" width="120" height="60" as="geometry" />
        </mxCell>
        <mxCell id="65cJs1QdrKwOqryNa3kE-12" value="وارد کردن اطلاعات دانش آموز جدید" style="html=1;verticalAlign=bottom;endArrow=block;curved=0;rounded=0;" edge="1" parent="1">
          <mxGeometry relative="1" as="geometry">
            <mxPoint x="80" y="289.65999999999997" as="sourcePoint" />
            <mxPoint x="480" y="289.65999999999997" as="targetPoint" />
            <Array as="points">
              <mxPoint x="290" y="289.65999999999997" />
            </Array>
          </mxGeometry>
        </mxCell>
        <mxCell id="65cJs1QdrKwOqryNa3kE-13" value="ثبت اطلاعات دانش آموز و نشان دادن تاییدیه" style="html=1;verticalAlign=bottom;endArrow=open;dashed=1;endSize=8;curved=0;rounded=0;" edge="1" parent="1">
          <mxGeometry relative="1" as="geometry">
            <mxPoint x="80" y="320" as="targetPoint" />
            <mxPoint x="480" y="320" as="sourcePoint" />
            <Array as="points">
              <mxPoint x="330" y="320" />
            </Array>
          </mxGeometry>
        </mxCell>
        <mxCell id="65cJs1QdrKwOqryNa3kE-26" value="&amp;nbsp;ثبت نام دانش آموز جدید توسط کارکنان" style="text;html=1;align=center;verticalAlign=middle;whiteSpace=wrap;rounded=0;" vertex="1" parent="1">
          <mxGeometry x="200" y="100" width="110" height="30" as="geometry" />
        </mxCell>
        <mxCell id="65cJs1QdrKwOqryNa3kE-29" value="" style="edgeStyle=orthogonalEdgeStyle;rounded=0;orthogonalLoop=1;jettySize=auto;html=1;curved=0;" edge="1" parent="1" source="65cJs1QdrKwOqryNa3kE-30" target="65cJs1QdrKwOqryNa3kE-31">
          <mxGeometry relative="1" as="geometry">
            <Array as="points">
              <mxPoint x="740" y="260" />
              <mxPoint x="740" y="260" />
            </Array>
          </mxGeometry>
        </mxCell>
        <mxCell id="65cJs1QdrKwOqryNa3kE-30" value="" style="html=1;points=[[0,0,0,0,5],[0,1,0,0,-5],[1,0,0,0,5],[1,1,0,0,-5]];perimeter=orthogonalPerimeter;outlineConnect=0;targetShapes=umlLifeline;portConstraint=eastwest;newEdgeStyle={&quot;curved&quot;:0,&quot;rounded&quot;:0};" vertex="1" parent="1">
          <mxGeometry x="735" y="190" width="10" height="180" as="geometry" />
        </mxCell>
        <mxCell id="65cJs1QdrKwOqryNa3kE-31" value="شخص" style="whiteSpace=wrap;html=1;" vertex="1" parent="1">
          <mxGeometry x="680" y="100" width="120" height="60" as="geometry" />
        </mxCell>
        <mxCell id="65cJs1QdrKwOqryNa3kE-32" value="" style="shape=umlActor;verticalLabelPosition=bottom;verticalAlign=top;html=1;outlineConnect=0;" vertex="1" parent="1">
          <mxGeometry x="50" y="20" width="30" height="60" as="geometry" />
        </mxCell>
        <mxCell id="65cJs1QdrKwOqryNa3kE-39" value="" style="shape=umlActor;verticalLabelPosition=bottom;verticalAlign=top;html=1;outlineConnect=0;" vertex="1" parent="1">
          <mxGeometry x="735" y="30" width="30" height="60" as="geometry" />
        </mxCell>
        <mxCell id="65cJs1QdrKwOqryNa3kE-40" value="مراجعه برای ثبت نام" style="html=1;verticalAlign=bottom;endArrow=block;curved=0;rounded=0;" edge="1" parent="1">
          <mxGeometry relative="1" as="geometry">
            <mxPoint x="735" y="200" as="sourcePoint" />
            <mxPoint x="80" y="200" as="targetPoint" />
            <Array as="points">
              <mxPoint x="280" y="200" />
            </Array>
          </mxGeometry>
        </mxCell>
        <mxCell id="65cJs1QdrKwOqryNa3kE-41" value="ارائه نام کاربری و رمز عبور برای ورود به سایت و فرستادن پیش مدیر برای آزمون تعیین سطح&amp;nbsp;" style="html=1;verticalAlign=bottom;endArrow=block;curved=0;rounded=0;" edge="1" parent="1">
          <mxGeometry relative="1" as="geometry">
            <mxPoint x="80" y="360.0000000000001" as="sourcePoint" />
            <mxPoint x="735" y="360.0000000000001" as="targetPoint" />
            <Array as="points">
              <mxPoint x="300" y="360" />
            </Array>
          </mxGeometry>
        </mxCell>
        <mxCell id="65cJs1QdrKwOqryNa3kE-42" value="" style="edgeStyle=orthogonalEdgeStyle;rounded=0;orthogonalLoop=1;jettySize=auto;html=1;curved=0;" edge="1" parent="1" source="65cJs1QdrKwOqryNa3kE-43" target="65cJs1QdrKwOqryNa3kE-46">
          <mxGeometry relative="1" as="geometry">
            <Array as="points">
              <mxPoint x="75" y="660" />
              <mxPoint x="75" y="660" />
            </Array>
          </mxGeometry>
        </mxCell>
        <mxCell id="65cJs1QdrKwOqryNa3kE-43" value="" style="html=1;points=[[0,0,0,0,5],[0,1,0,0,-5],[1,0,0,0,5],[1,1,0,0,-5]];perimeter=orthogonalPerimeter;outlineConnect=0;targetShapes=umlLifeline;portConstraint=eastwest;newEdgeStyle={&quot;curved&quot;:0,&quot;rounded&quot;:0};" vertex="1" parent="1">
          <mxGeometry x="70" y="590" width="10" height="230" as="geometry" />
        </mxCell>
        <mxCell id="65cJs1QdrKwOqryNa3kE-44" value="ورود به سامانه" style="html=1;verticalAlign=bottom;endArrow=block;curved=0;rounded=0;" edge="1" parent="1">
          <mxGeometry relative="1" as="geometry">
            <mxPoint x="80" y="630" as="sourcePoint" />
            <mxPoint x="480" y="630" as="targetPoint" />
            <Array as="points">
              <mxPoint x="270" y="630" />
            </Array>
          </mxGeometry>
        </mxCell>
        <mxCell id="65cJs1QdrKwOqryNa3kE-45" value="نمایش داشبورد کارمند" style="html=1;verticalAlign=bottom;endArrow=open;dashed=1;endSize=8;curved=0;rounded=0;" edge="1" parent="1">
          <mxGeometry relative="1" as="geometry">
            <mxPoint x="80" y="660" as="targetPoint" />
            <mxPoint x="480" y="660" as="sourcePoint" />
            <Array as="points">
              <mxPoint x="280" y="660" />
            </Array>
          </mxGeometry>
        </mxCell>
        <mxCell id="65cJs1QdrKwOqryNa3kE-46" value="کارمند" style="whiteSpace=wrap;html=1;" vertex="1" parent="1">
          <mxGeometry x="15" y="500" width="120" height="60" as="geometry" />
        </mxCell>
        <mxCell id="65cJs1QdrKwOqryNa3kE-47" value="" style="edgeStyle=orthogonalEdgeStyle;rounded=0;orthogonalLoop=1;jettySize=auto;html=1;curved=0;" edge="1" parent="1" source="65cJs1QdrKwOqryNa3kE-48" target="65cJs1QdrKwOqryNa3kE-49">
          <mxGeometry relative="1" as="geometry">
            <Array as="points">
              <mxPoint x="485" y="660" />
              <mxPoint x="485" y="660" />
            </Array>
          </mxGeometry>
        </mxCell>
        <mxCell id="65cJs1QdrKwOqryNa3kE-48" value="" style="html=1;points=[[0,0,0,0,5],[0,1,0,0,-5],[1,0,0,0,5],[1,1,0,0,-5]];perimeter=orthogonalPerimeter;outlineConnect=0;targetShapes=umlLifeline;portConstraint=eastwest;newEdgeStyle={&quot;curved&quot;:0,&quot;rounded&quot;:0};" vertex="1" parent="1">
          <mxGeometry x="480" y="610" width="10" height="180" as="geometry" />
        </mxCell>
        <mxCell id="65cJs1QdrKwOqryNa3kE-49" value="سامانه آموزشگاه" style="whiteSpace=wrap;html=1;" vertex="1" parent="1">
          <mxGeometry x="425" y="500" width="120" height="60" as="geometry" />
        </mxCell>
        <mxCell id="65cJs1QdrKwOqryNa3kE-50" value="جستجوی دانش آموز" style="html=1;verticalAlign=bottom;endArrow=block;curved=0;rounded=0;" edge="1" parent="1">
          <mxGeometry relative="1" as="geometry">
            <mxPoint x="80" y="689.66" as="sourcePoint" />
            <mxPoint x="480" y="689.66" as="targetPoint" />
            <Array as="points">
              <mxPoint x="290" y="689.66" />
            </Array>
          </mxGeometry>
        </mxCell>
        <mxCell id="65cJs1QdrKwOqryNa3kE-51" value="نمایش اطلاعات آموز" style="html=1;verticalAlign=bottom;endArrow=open;dashed=1;endSize=8;curved=0;rounded=0;" edge="1" parent="1">
          <mxGeometry relative="1" as="geometry">
            <mxPoint x="80" y="720" as="targetPoint" />
            <mxPoint x="480" y="720" as="sourcePoint" />
            <Array as="points">
              <mxPoint x="330" y="720" />
            </Array>
          </mxGeometry>
        </mxCell>
        <mxCell id="65cJs1QdrKwOqryNa3kE-52" value="پرداخت حضوری شهریه" style="text;html=1;align=center;verticalAlign=middle;whiteSpace=wrap;rounded=0;" vertex="1" parent="1">
          <mxGeometry x="200" y="500" width="110" height="30" as="geometry" />
        </mxCell>
        <mxCell id="65cJs1QdrKwOqryNa3kE-53" value="" style="edgeStyle=orthogonalEdgeStyle;rounded=0;orthogonalLoop=1;jettySize=auto;html=1;curved=0;" edge="1" parent="1" source="65cJs1QdrKwOqryNa3kE-54" target="65cJs1QdrKwOqryNa3kE-55">
          <mxGeometry relative="1" as="geometry">
            <Array as="points">
              <mxPoint x="740" y="660" />
              <mxPoint x="740" y="660" />
            </Array>
          </mxGeometry>
        </mxCell>
        <mxCell id="65cJs1QdrKwOqryNa3kE-54" value="" style="html=1;points=[[0,0,0,0,5],[0,1,0,0,-5],[1,0,0,0,5],[1,1,0,0,-5]];perimeter=orthogonalPerimeter;outlineConnect=0;targetShapes=umlLifeline;portConstraint=eastwest;newEdgeStyle={&quot;curved&quot;:0,&quot;rounded&quot;:0};" vertex="1" parent="1">
          <mxGeometry x="735" y="590" width="10" height="230" as="geometry" />
        </mxCell>
        <mxCell id="65cJs1QdrKwOqryNa3kE-55" value="شخص" style="whiteSpace=wrap;html=1;" vertex="1" parent="1">
          <mxGeometry x="680" y="500" width="120" height="60" as="geometry" />
        </mxCell>
        <mxCell id="65cJs1QdrKwOqryNa3kE-56" value="" style="shape=umlActor;verticalLabelPosition=bottom;verticalAlign=top;html=1;outlineConnect=0;" vertex="1" parent="1">
          <mxGeometry x="50" y="420" width="30" height="60" as="geometry" />
        </mxCell>
        <mxCell id="65cJs1QdrKwOqryNa3kE-57" value="" style="shape=umlActor;verticalLabelPosition=bottom;verticalAlign=top;html=1;outlineConnect=0;" vertex="1" parent="1">
          <mxGeometry x="735" y="430" width="30" height="60" as="geometry" />
        </mxCell>
        <mxCell id="65cJs1QdrKwOqryNa3kE-58" value="مراجعه برای پرداخت شهریه" style="html=1;verticalAlign=bottom;endArrow=block;curved=0;rounded=0;" edge="1" parent="1">
          <mxGeometry relative="1" as="geometry">
            <mxPoint x="735" y="600" as="sourcePoint" />
            <mxPoint x="80" y="600" as="targetPoint" />
            <Array as="points">
              <mxPoint x="280" y="600" />
            </Array>
          </mxGeometry>
        </mxCell>
        <mxCell id="65cJs1QdrKwOqryNa3kE-59" value="ارائه کد رهگیری و رسید پرداخت به دانش آموز" style="html=1;verticalAlign=bottom;endArrow=block;curved=0;rounded=0;" edge="1" parent="1" source="65cJs1QdrKwOqryNa3kE-43" target="65cJs1QdrKwOqryNa3kE-54">
          <mxGeometry relative="1" as="geometry">
            <mxPoint x="80" y="810.0000000000001" as="sourcePoint" />
            <mxPoint x="735" y="810.0000000000001" as="targetPoint" />
            <Array as="points">
              <mxPoint x="300" y="810" />
            </Array>
          </mxGeometry>
        </mxCell>
        <mxCell id="65cJs1QdrKwOqryNa3kE-61" value="مشخص کردن مقدار پرداخت شده و ثبت آن" style="html=1;verticalAlign=bottom;endArrow=block;curved=0;rounded=0;" edge="1" parent="1">
          <mxGeometry relative="1" as="geometry">
            <mxPoint x="80" y="750" as="sourcePoint" />
            <mxPoint x="480" y="750" as="targetPoint" />
            <Array as="points">
              <mxPoint x="310" y="750" />
            </Array>
          </mxGeometry>
        </mxCell>
        <mxCell id="65cJs1QdrKwOqryNa3kE-62" value="ثبت نهایی پرداخت و نشان دادن تاییدیه و کد رهگیری" style="html=1;verticalAlign=bottom;endArrow=open;dashed=1;endSize=8;curved=0;rounded=0;" edge="1" parent="1" source="65cJs1QdrKwOqryNa3kE-48" target="65cJs1QdrKwOqryNa3kE-43">
          <mxGeometry relative="1" as="geometry">
            <mxPoint x="80" y="780" as="targetPoint" />
            <mxPoint x="480" y="780" as="sourcePoint" />
            <Array as="points">
              <mxPoint x="330" y="780" />
            </Array>
          </mxGeometry>
        </mxCell>
        <mxCell id="65cJs1QdrKwOqryNa3kE-64" value="" style="edgeStyle=orthogonalEdgeStyle;rounded=0;orthogonalLoop=1;jettySize=auto;html=1;curved=0;" edge="1" parent="1" source="65cJs1QdrKwOqryNa3kE-65" target="65cJs1QdrKwOqryNa3kE-68">
          <mxGeometry relative="1" as="geometry">
            <Array as="points">
              <mxPoint x="75" y="1140" />
              <mxPoint x="75" y="1140" />
            </Array>
          </mxGeometry>
        </mxCell>
        <mxCell id="65cJs1QdrKwOqryNa3kE-65" value="" style="html=1;points=[[0,0,0,0,5],[0,1,0,0,-5],[1,0,0,0,5],[1,1,0,0,-5]];perimeter=orthogonalPerimeter;outlineConnect=0;targetShapes=umlLifeline;portConstraint=eastwest;newEdgeStyle={&quot;curved&quot;:0,&quot;rounded&quot;:0};" vertex="1" parent="1">
          <mxGeometry x="70" y="1080" width="10" height="200" as="geometry" />
        </mxCell>
        <mxCell id="65cJs1QdrKwOqryNa3kE-66" value="ورود به سامانه" style="html=1;verticalAlign=bottom;endArrow=block;curved=0;rounded=0;" edge="1" parent="1" target="65cJs1QdrKwOqryNa3kE-70">
          <mxGeometry relative="1" as="geometry">
            <mxPoint x="80" y="1110" as="sourcePoint" />
            <mxPoint x="480" y="1110" as="targetPoint" />
            <Array as="points">
              <mxPoint x="270" y="1110" />
            </Array>
          </mxGeometry>
        </mxCell>
        <mxCell id="65cJs1QdrKwOqryNa3kE-67" value="نمایش داشبورد کارمند" style="html=1;verticalAlign=bottom;endArrow=open;dashed=1;endSize=8;curved=0;rounded=0;" edge="1" parent="1" source="65cJs1QdrKwOqryNa3kE-70">
          <mxGeometry relative="1" as="geometry">
            <mxPoint x="80" y="1140" as="targetPoint" />
            <mxPoint x="480" y="1140" as="sourcePoint" />
            <Array as="points">
              <mxPoint x="280" y="1140" />
            </Array>
          </mxGeometry>
        </mxCell>
        <mxCell id="65cJs1QdrKwOqryNa3kE-68" value="کارمند" style="whiteSpace=wrap;html=1;" vertex="1" parent="1">
          <mxGeometry x="15" y="980" width="120" height="60" as="geometry" />
        </mxCell>
        <mxCell id="65cJs1QdrKwOqryNa3kE-84" style="edgeStyle=orthogonalEdgeStyle;rounded=0;orthogonalLoop=1;jettySize=auto;html=1;curved=0;" edge="1" parent="1" source="65cJs1QdrKwOqryNa3kE-70" target="65cJs1QdrKwOqryNa3kE-71">
          <mxGeometry relative="1" as="geometry">
            <Array as="points">
              <mxPoint x="740" y="1070" />
              <mxPoint x="740" y="1070" />
            </Array>
          </mxGeometry>
        </mxCell>
        <mxCell id="65cJs1QdrKwOqryNa3kE-70" value="" style="html=1;points=[[0,0,0,0,5],[0,1,0,0,-5],[1,0,0,0,5],[1,1,0,0,-5]];perimeter=orthogonalPerimeter;outlineConnect=0;targetShapes=umlLifeline;portConstraint=eastwest;newEdgeStyle={&quot;curved&quot;:0,&quot;rounded&quot;:0};" vertex="1" parent="1">
          <mxGeometry x="735" y="1080" width="10" height="200" as="geometry" />
        </mxCell>
        <mxCell id="65cJs1QdrKwOqryNa3kE-71" value="سامانه آموزشگاه" style="whiteSpace=wrap;html=1;" vertex="1" parent="1">
          <mxGeometry x="660" y="1000" width="120" height="60" as="geometry" />
        </mxCell>
        <mxCell id="65cJs1QdrKwOqryNa3kE-72" value="جستجوی دوره" style="html=1;verticalAlign=bottom;endArrow=block;curved=0;rounded=0;" edge="1" parent="1" target="65cJs1QdrKwOqryNa3kE-70">
          <mxGeometry relative="1" as="geometry">
            <mxPoint x="80" y="1169.6599999999999" as="sourcePoint" />
            <mxPoint x="480" y="1169.6599999999999" as="targetPoint" />
            <Array as="points">
              <mxPoint x="290" y="1169.6599999999999" />
            </Array>
          </mxGeometry>
        </mxCell>
        <mxCell id="65cJs1QdrKwOqryNa3kE-73" value="نمایش دوره" style="html=1;verticalAlign=bottom;endArrow=open;dashed=1;endSize=8;curved=0;rounded=0;" edge="1" parent="1" source="65cJs1QdrKwOqryNa3kE-70">
          <mxGeometry relative="1" as="geometry">
            <mxPoint x="80" y="1200" as="targetPoint" />
            <mxPoint x="480" y="1200" as="sourcePoint" />
            <Array as="points">
              <mxPoint x="330" y="1200" />
            </Array>
          </mxGeometry>
        </mxCell>
        <mxCell id="65cJs1QdrKwOqryNa3kE-74" value="تخصیص معلم به دوره" style="text;html=1;align=center;verticalAlign=middle;whiteSpace=wrap;rounded=0;" vertex="1" parent="1">
          <mxGeometry x="230" y="1010" width="110" height="30" as="geometry" />
        </mxCell>
        <mxCell id="65cJs1QdrKwOqryNa3kE-78" value="" style="shape=umlActor;verticalLabelPosition=bottom;verticalAlign=top;html=1;outlineConnect=0;" vertex="1" parent="1">
          <mxGeometry x="50" y="900" width="30" height="60" as="geometry" />
        </mxCell>
        <mxCell id="65cJs1QdrKwOqryNa3kE-82" value="انتخاب معلم از لیست کشویی بازشده" style="html=1;verticalAlign=bottom;endArrow=block;curved=0;rounded=0;" edge="1" parent="1" target="65cJs1QdrKwOqryNa3kE-70">
          <mxGeometry relative="1" as="geometry">
            <mxPoint x="80" y="1230" as="sourcePoint" />
            <mxPoint x="480" y="1230" as="targetPoint" />
            <Array as="points">
              <mxPoint x="310" y="1230" />
            </Array>
          </mxGeometry>
        </mxCell>
        <mxCell id="65cJs1QdrKwOqryNa3kE-83" value="ثبت معلم به عنوان استاد دوره" style="html=1;verticalAlign=bottom;endArrow=open;dashed=1;endSize=8;curved=0;rounded=0;" edge="1" parent="1" source="65cJs1QdrKwOqryNa3kE-70" target="65cJs1QdrKwOqryNa3kE-65">
          <mxGeometry relative="1" as="geometry">
            <mxPoint x="80" y="1260" as="targetPoint" />
            <mxPoint x="480" y="1260" as="sourcePoint" />
            <Array as="points">
              <mxPoint x="330" y="1260" />
            </Array>
          </mxGeometry>
        </mxCell>
        <mxCell id="65cJs1QdrKwOqryNa3kE-85" value="" style="edgeStyle=orthogonalEdgeStyle;rounded=0;orthogonalLoop=1;jettySize=auto;html=1;curved=0;" edge="1" parent="1" source="65cJs1QdrKwOqryNa3kE-86" target="65cJs1QdrKwOqryNa3kE-89">
          <mxGeometry relative="1" as="geometry">
            <Array as="points">
              <mxPoint x="75" y="1580" />
              <mxPoint x="75" y="1580" />
            </Array>
          </mxGeometry>
        </mxCell>
        <mxCell id="65cJs1QdrKwOqryNa3kE-86" value="" style="html=1;points=[[0,0,0,0,5],[0,1,0,0,-5],[1,0,0,0,5],[1,1,0,0,-5]];perimeter=orthogonalPerimeter;outlineConnect=0;targetShapes=umlLifeline;portConstraint=eastwest;newEdgeStyle={&quot;curved&quot;:0,&quot;rounded&quot;:0};" vertex="1" parent="1">
          <mxGeometry x="70" y="1520" width="10" height="250" as="geometry" />
        </mxCell>
        <mxCell id="65cJs1QdrKwOqryNa3kE-87" value="ورود به سامانه" style="html=1;verticalAlign=bottom;endArrow=block;curved=0;rounded=0;" edge="1" parent="1" target="65cJs1QdrKwOqryNa3kE-91">
          <mxGeometry relative="1" as="geometry">
            <mxPoint x="80" y="1550" as="sourcePoint" />
            <mxPoint x="480" y="1550" as="targetPoint" />
            <Array as="points">
              <mxPoint x="270" y="1550" />
            </Array>
          </mxGeometry>
        </mxCell>
        <mxCell id="65cJs1QdrKwOqryNa3kE-88" value="نمایش داشبورد معلم" style="html=1;verticalAlign=bottom;endArrow=open;dashed=1;endSize=8;curved=0;rounded=0;" edge="1" parent="1" source="65cJs1QdrKwOqryNa3kE-91">
          <mxGeometry relative="1" as="geometry">
            <mxPoint x="80" y="1580" as="targetPoint" />
            <mxPoint x="480" y="1580" as="sourcePoint" />
            <Array as="points">
              <mxPoint x="280" y="1580" />
            </Array>
          </mxGeometry>
        </mxCell>
        <mxCell id="65cJs1QdrKwOqryNa3kE-89" value="معلم" style="whiteSpace=wrap;html=1;" vertex="1" parent="1">
          <mxGeometry x="15" y="1420" width="120" height="60" as="geometry" />
        </mxCell>
        <mxCell id="65cJs1QdrKwOqryNa3kE-90" style="edgeStyle=orthogonalEdgeStyle;rounded=0;orthogonalLoop=1;jettySize=auto;html=1;curved=0;" edge="1" parent="1" source="65cJs1QdrKwOqryNa3kE-91" target="65cJs1QdrKwOqryNa3kE-92">
          <mxGeometry relative="1" as="geometry">
            <Array as="points">
              <mxPoint x="740" y="1510" />
              <mxPoint x="740" y="1510" />
            </Array>
          </mxGeometry>
        </mxCell>
        <mxCell id="65cJs1QdrKwOqryNa3kE-91" value="" style="html=1;points=[[0,0,0,0,5],[0,1,0,0,-5],[1,0,0,0,5],[1,1,0,0,-5]];perimeter=orthogonalPerimeter;outlineConnect=0;targetShapes=umlLifeline;portConstraint=eastwest;newEdgeStyle={&quot;curved&quot;:0,&quot;rounded&quot;:0};" vertex="1" parent="1">
          <mxGeometry x="735" y="1520" width="10" height="250" as="geometry" />
        </mxCell>
        <mxCell id="65cJs1QdrKwOqryNa3kE-92" value="سامانه آموزشگاه" style="whiteSpace=wrap;html=1;" vertex="1" parent="1">
          <mxGeometry x="660" y="1440" width="120" height="60" as="geometry" />
        </mxCell>
        <mxCell id="65cJs1QdrKwOqryNa3kE-93" value="جستجوی کلاس" style="html=1;verticalAlign=bottom;endArrow=block;curved=0;rounded=0;" edge="1" parent="1" target="65cJs1QdrKwOqryNa3kE-91">
          <mxGeometry relative="1" as="geometry">
            <mxPoint x="80" y="1609.6599999999999" as="sourcePoint" />
            <mxPoint x="480" y="1609.6599999999999" as="targetPoint" />
            <Array as="points">
              <mxPoint x="290" y="1609.6599999999999" />
            </Array>
          </mxGeometry>
        </mxCell>
        <mxCell id="65cJs1QdrKwOqryNa3kE-94" value="نمایش اطلاعات کلاس" style="html=1;verticalAlign=bottom;endArrow=open;dashed=1;endSize=8;curved=0;rounded=0;" edge="1" parent="1" source="65cJs1QdrKwOqryNa3kE-91">
          <mxGeometry relative="1" as="geometry">
            <mxPoint x="80" y="1640" as="targetPoint" />
            <mxPoint x="480" y="1640" as="sourcePoint" />
            <Array as="points">
              <mxPoint x="330" y="1640" />
            </Array>
          </mxGeometry>
        </mxCell>
        <mxCell id="65cJs1QdrKwOqryNa3kE-95" value="ثبت نمرات پایان ترم توسط معلم" style="text;html=1;align=center;verticalAlign=middle;whiteSpace=wrap;rounded=0;" vertex="1" parent="1">
          <mxGeometry x="230" y="1450" width="150" height="30" as="geometry" />
        </mxCell>
        <mxCell id="65cJs1QdrKwOqryNa3kE-96" value="" style="shape=umlActor;verticalLabelPosition=bottom;verticalAlign=top;html=1;outlineConnect=0;" vertex="1" parent="1">
          <mxGeometry x="50" y="1340" width="30" height="60" as="geometry" />
        </mxCell>
        <mxCell id="65cJs1QdrKwOqryNa3kE-97" value="انتخاب گزینه افزودن نمره امتحان پایانی" style="html=1;verticalAlign=bottom;endArrow=block;curved=0;rounded=0;" edge="1" parent="1" target="65cJs1QdrKwOqryNa3kE-91">
          <mxGeometry relative="1" as="geometry">
            <mxPoint x="80" y="1670" as="sourcePoint" />
            <mxPoint x="480" y="1670" as="targetPoint" />
            <Array as="points">
              <mxPoint x="310" y="1670" />
            </Array>
          </mxGeometry>
        </mxCell>
        <mxCell id="65cJs1QdrKwOqryNa3kE-98" value="نمایش لیست دانش آموزان برای وارد کردن نمره" style="html=1;verticalAlign=bottom;endArrow=open;dashed=1;endSize=8;curved=0;rounded=0;" edge="1" parent="1" source="65cJs1QdrKwOqryNa3kE-91" target="65cJs1QdrKwOqryNa3kE-86">
          <mxGeometry relative="1" as="geometry">
            <mxPoint x="80" y="1700" as="targetPoint" />
            <mxPoint x="480" y="1700" as="sourcePoint" />
            <Array as="points">
              <mxPoint x="330" y="1700" />
            </Array>
          </mxGeometry>
        </mxCell>
        <mxCell id="65cJs1QdrKwOqryNa3kE-99" value="وارد کردن نمره تمامی دانش آموزان" style="html=1;verticalAlign=bottom;endArrow=block;curved=0;rounded=0;" edge="1" parent="1">
          <mxGeometry relative="1" as="geometry">
            <mxPoint x="80" y="1730" as="sourcePoint" />
            <mxPoint x="735" y="1730" as="targetPoint" />
            <Array as="points">
              <mxPoint x="310" y="1730" />
            </Array>
          </mxGeometry>
        </mxCell>
        <mxCell id="65cJs1QdrKwOqryNa3kE-100" value="ثبت نمرات و نمایش نمرات برای چک پایانی" style="html=1;verticalAlign=bottom;endArrow=open;dashed=1;endSize=8;curved=0;rounded=0;" edge="1" parent="1">
          <mxGeometry relative="1" as="geometry">
            <mxPoint x="80" y="1760" as="targetPoint" />
            <mxPoint x="735" y="1760" as="sourcePoint" />
            <Array as="points">
              <mxPoint x="330" y="1760" />
            </Array>
          </mxGeometry>
        </mxCell>
      </root>
    </mxGraphModel>
  </diagram>
</mxfile>
